<svg xmlns="http://www.w3.org/2000/svg" xmlns:xlink="http://www.w3.org/1999/xlink" width="500" zoomAndPan="magnify" viewBox="0 0 375 374.999991" height="500" preserveAspectRatio="xMidYMid meet" version="1.0"><defs><g/><clipPath id="acec220f07"><path d="M 58.144531 165.910156 L 82 165.910156 L 82 198.910156 L 58.144531 198.910156 Z M 58.144531 165.910156 " clip-rule="nonzero"/></clipPath></defs><g fill="#0989c1" fill-opacity="1"><g transform="translate(91.28448, 196.15055)"><g><path d="M 8.703125 -8.125 L 8.703125 -0.140625 C 8.441406 -0.0664062 8.019531 0.00390625 7.4375 0.078125 C 6.863281 0.148438 6.296875 0.1875 5.734375 0.1875 C 5.179688 0.1875 4.691406 0.140625 4.265625 0.046875 C 3.847656 -0.0351562 3.492188 -0.179688 3.203125 -0.390625 C 2.921875 -0.609375 2.707031 -0.910156 2.5625 -1.296875 C 2.414062 -1.679688 2.34375 -2.1875 2.34375 -2.8125 L 2.34375 -21.875 C 2.613281 -21.925781 3.035156 -21.992188 3.609375 -22.078125 C 4.191406 -22.160156 4.742188 -22.203125 5.265625 -22.203125 C 5.828125 -22.203125 6.316406 -22.160156 6.734375 -22.078125 C 7.148438 -21.992188 7.503906 -21.84375 7.796875 -21.625 C 8.085938 -21.40625 8.304688 -21.101562 8.453125 -20.71875 C 8.597656 -20.34375 8.671875 -19.835938 8.671875 -19.203125 L 8.671875 -13.46875 L 16.171875 -22.09375 C 17.804688 -22.09375 18.976562 -21.785156 19.6875 -21.171875 C 20.40625 -20.554688 20.765625 -19.832031 20.765625 -19 C 20.765625 -18.375 20.609375 -17.78125 20.296875 -17.21875 C 19.984375 -16.664062 19.476562 -16.039062 18.78125 -15.34375 L 14.265625 -10.828125 C 14.867188 -10.160156 15.5 -9.460938 16.15625 -8.734375 C 16.820312 -8.015625 17.472656 -7.3125 18.109375 -6.625 C 18.742188 -5.9375 19.351562 -5.28125 19.9375 -4.65625 C 20.53125 -4.03125 21.046875 -3.488281 21.484375 -3.03125 C 21.484375 -2.5 21.382812 -2.03125 21.1875 -1.625 C 21 -1.21875 20.742188 -0.867188 20.421875 -0.578125 C 20.097656 -0.285156 19.726562 -0.0703125 19.3125 0.0625 C 18.90625 0.207031 18.472656 0.28125 18.015625 0.28125 C 17.023438 0.28125 16.21875 0.0351562 15.59375 -0.453125 C 14.96875 -0.941406 14.367188 -1.523438 13.796875 -2.203125 Z M 8.703125 -8.125 "/></g></g></g><g fill="#0989c1" fill-opacity="1"><g transform="translate(113.49019, 196.15055)"><g><path d="M 1.875 -17.296875 C 2.113281 -17.367188 2.492188 -17.441406 3.015625 -17.515625 C 3.535156 -17.585938 4.070312 -17.625 4.625 -17.625 C 5.15625 -17.625 5.628906 -17.585938 6.046875 -17.515625 C 6.472656 -17.441406 6.828125 -17.296875 7.109375 -17.078125 C 7.398438 -16.859375 7.625 -16.5625 7.78125 -16.1875 C 7.9375 -15.820312 8.015625 -15.335938 8.015625 -14.734375 L 8.015625 -6.96875 C 8.015625 -5.976562 8.253906 -5.269531 8.734375 -4.84375 C 9.210938 -4.425781 9.910156 -4.21875 10.828125 -4.21875 C 11.378906 -4.21875 11.828125 -4.265625 12.171875 -4.359375 C 12.523438 -4.460938 12.800781 -4.5625 13 -4.65625 L 13 -17.296875 C 13.238281 -17.367188 13.613281 -17.441406 14.125 -17.515625 C 14.644531 -17.585938 15.1875 -17.625 15.75 -17.625 C 16.269531 -17.625 16.738281 -17.585938 17.15625 -17.515625 C 17.582031 -17.441406 17.941406 -17.296875 18.234375 -17.078125 C 18.523438 -16.859375 18.75 -16.5625 18.90625 -16.1875 C 19.0625 -15.820312 19.140625 -15.335938 19.140625 -14.734375 L 19.140625 -3.75 C 19.140625 -2.550781 18.632812 -1.648438 17.625 -1.046875 C 16.78125 -0.515625 15.773438 -0.113281 14.609375 0.15625 C 13.441406 0.4375 12.171875 0.578125 10.796875 0.578125 C 9.492188 0.578125 8.296875 0.429688 7.203125 0.140625 C 6.109375 -0.140625 5.160156 -0.582031 4.359375 -1.1875 C 3.566406 -1.789062 2.953125 -2.566406 2.515625 -3.515625 C 2.085938 -4.472656 1.875 -5.625 1.875 -6.96875 Z M 1.875 -17.296875 "/></g></g></g><g fill="#0989c1" fill-opacity="1"><g transform="translate(134.504365, 196.15055)"><g><path d="M 10.296875 -18.09375 C 11.273438 -18.09375 12.238281 -17.953125 13.1875 -17.671875 C 14.144531 -17.398438 14.972656 -16.988281 15.671875 -16.4375 C 16.390625 -16.914062 17.203125 -17.3125 18.109375 -17.625 C 19.015625 -17.9375 20.101562 -18.09375 21.375 -18.09375 C 22.289062 -18.09375 23.1875 -17.972656 24.0625 -17.734375 C 24.945312 -17.492188 25.726562 -17.113281 26.40625 -16.59375 C 27.09375 -16.070312 27.640625 -15.382812 28.046875 -14.53125 C 28.460938 -13.675781 28.671875 -12.632812 28.671875 -11.40625 L 28.671875 -0.03125 C 28.429688 0.0390625 28.050781 0.109375 27.53125 0.171875 C 27.007812 0.242188 26.472656 0.28125 25.921875 0.28125 C 25.390625 0.28125 24.914062 0.242188 24.5 0.171875 C 24.082031 0.109375 23.726562 -0.03125 23.4375 -0.25 C 23.144531 -0.46875 22.921875 -0.765625 22.765625 -1.140625 C 22.609375 -1.515625 22.53125 -2 22.53125 -2.59375 L 22.53125 -11.234375 C 22.53125 -11.953125 22.320312 -12.472656 21.90625 -12.796875 C 21.5 -13.117188 20.945312 -13.28125 20.25 -13.28125 C 19.914062 -13.28125 19.554688 -13.203125 19.171875 -13.046875 C 18.785156 -12.890625 18.5 -12.726562 18.3125 -12.5625 C 18.332031 -12.46875 18.34375 -12.378906 18.34375 -12.296875 C 18.34375 -12.210938 18.34375 -12.132812 18.34375 -12.0625 L 18.34375 -0.03125 C 18.082031 0.0390625 17.691406 0.109375 17.171875 0.171875 C 16.648438 0.242188 16.125 0.28125 15.59375 0.28125 C 15.070312 0.28125 14.597656 0.242188 14.171875 0.171875 C 13.753906 0.109375 13.398438 -0.03125 13.109375 -0.25 C 12.816406 -0.46875 12.59375 -0.765625 12.4375 -1.140625 C 12.28125 -1.515625 12.203125 -2 12.203125 -2.59375 L 12.203125 -11.234375 C 12.203125 -11.953125 11.976562 -12.472656 11.53125 -12.796875 C 11.09375 -13.117188 10.5625 -13.28125 9.9375 -13.28125 C 9.5 -13.28125 9.125 -13.210938 8.8125 -13.078125 C 8.5 -12.953125 8.234375 -12.828125 8.015625 -12.703125 L 8.015625 -0.03125 C 7.773438 0.0390625 7.394531 0.109375 6.875 0.171875 C 6.363281 0.242188 5.828125 0.28125 5.265625 0.28125 C 4.742188 0.28125 4.269531 0.242188 3.84375 0.171875 C 3.425781 0.109375 3.070312 -0.03125 2.78125 -0.25 C 2.488281 -0.46875 2.265625 -0.765625 2.109375 -1.140625 C 1.953125 -1.515625 1.875 -2 1.875 -2.59375 L 1.875 -13.5 C 1.875 -14.15625 2.007812 -14.675781 2.28125 -15.0625 C 2.5625 -15.445312 2.945312 -15.804688 3.4375 -16.140625 C 4.25 -16.710938 5.265625 -17.179688 6.484375 -17.546875 C 7.703125 -17.910156 8.972656 -18.09375 10.296875 -18.09375 Z M 10.296875 -18.09375 "/></g></g></g><g fill="#0989c1" fill-opacity="1"><g transform="translate(165.050747, 196.15055)"><g><path d="M 1.953125 -23.5 C 2.191406 -23.570312 2.578125 -23.648438 3.109375 -23.734375 C 3.640625 -23.828125 4.179688 -23.875 4.734375 -23.875 C 5.265625 -23.875 5.738281 -23.835938 6.15625 -23.765625 C 6.570312 -23.691406 6.925781 -23.546875 7.21875 -23.328125 C 7.507812 -23.109375 7.726562 -22.8125 7.875 -22.4375 C 8.019531 -22.0625 8.09375 -21.578125 8.09375 -20.984375 L 8.09375 -17.4375 C 8.6875 -17.675781 9.253906 -17.84375 9.796875 -17.9375 C 10.335938 -18.039062 10.9375 -18.09375 11.59375 -18.09375 C 12.75 -18.09375 13.84375 -17.882812 14.875 -17.46875 C 15.914062 -17.0625 16.832031 -16.46875 17.625 -15.6875 C 18.414062 -14.90625 19.039062 -13.9375 19.5 -12.78125 C 19.957031 -11.625 20.1875 -10.289062 20.1875 -8.78125 C 20.1875 -7.207031 19.953125 -5.835938 19.484375 -4.671875 C 19.015625 -3.503906 18.359375 -2.535156 17.515625 -1.765625 C 16.671875 -0.992188 15.640625 -0.410156 14.421875 -0.015625 C 13.210938 0.378906 11.875 0.578125 10.40625 0.578125 C 8.8125 0.578125 7.457031 0.390625 6.34375 0.015625 C 5.238281 -0.359375 4.300781 -0.820312 3.53125 -1.375 C 2.476562 -2.113281 1.953125 -3.078125 1.953125 -4.265625 Z M 10.40625 -4.265625 C 11.507812 -4.265625 12.367188 -4.640625 12.984375 -5.390625 C 13.597656 -6.148438 13.90625 -7.28125 13.90625 -8.78125 C 13.90625 -10.289062 13.59375 -11.414062 12.96875 -12.15625 C 12.34375 -12.90625 11.5 -13.28125 10.4375 -13.28125 C 9.957031 -13.28125 9.539062 -13.234375 9.1875 -13.140625 C 8.84375 -13.046875 8.460938 -12.898438 8.046875 -12.703125 L 8.046875 -4.84375 C 8.316406 -4.664062 8.632812 -4.523438 9 -4.421875 C 9.375 -4.316406 9.84375 -4.265625 10.40625 -4.265625 Z M 10.40625 -4.265625 "/></g></g></g><g fill="#0989c1" fill-opacity="1"><g transform="translate(186.353778, 196.15055)"><g><path d="M 19.203125 -0.03125 C 18.960938 0.0390625 18.582031 0.109375 18.0625 0.171875 C 17.550781 0.242188 17.019531 0.28125 16.46875 0.28125 C 15.9375 0.28125 15.457031 0.242188 15.03125 0.171875 C 14.613281 0.109375 14.257812 -0.03125 13.96875 -0.25 C 13.6875 -0.46875 13.46875 -0.765625 13.3125 -1.140625 C 13.15625 -1.515625 13.078125 -2 13.078125 -2.59375 L 13.078125 -10.609375 C 13.078125 -11.597656 12.828125 -12.289062 12.328125 -12.6875 C 11.835938 -13.082031 11.234375 -13.28125 10.515625 -13.28125 C 10.023438 -13.28125 9.5625 -13.21875 9.125 -13.09375 C 8.695312 -12.976562 8.351562 -12.835938 8.09375 -12.671875 L 8.09375 -0.03125 C 7.851562 0.0390625 7.472656 0.109375 6.953125 0.171875 C 6.429688 0.242188 5.894531 0.28125 5.34375 0.28125 C 4.8125 0.28125 4.332031 0.242188 3.90625 0.171875 C 3.488281 0.109375 3.132812 -0.03125 2.84375 -0.25 C 2.5625 -0.46875 2.34375 -0.765625 2.1875 -1.140625 C 2.03125 -1.515625 1.953125 -2 1.953125 -2.59375 L 1.953125 -23.546875 C 2.210938 -23.585938 2.601562 -23.648438 3.125 -23.734375 C 3.644531 -23.828125 4.164062 -23.875 4.6875 -23.875 C 5.21875 -23.875 5.691406 -23.835938 6.109375 -23.765625 C 6.535156 -23.691406 6.894531 -23.546875 7.1875 -23.328125 C 7.476562 -23.109375 7.703125 -22.8125 7.859375 -22.4375 C 8.015625 -22.0625 8.09375 -21.578125 8.09375 -20.984375 L 8.09375 -17.4375 C 8.40625 -17.5625 8.878906 -17.703125 9.515625 -17.859375 C 10.148438 -18.015625 10.851562 -18.09375 11.625 -18.09375 C 14.007812 -18.09375 15.867188 -17.492188 17.203125 -16.296875 C 18.535156 -15.109375 19.203125 -13.335938 19.203125 -10.984375 Z M 19.203125 -0.03125 "/></g></g></g><g fill="#0989c1" fill-opacity="1"><g transform="translate(207.476283, 196.15055)"><g><path d="M 9.390625 -3.90625 C 9.796875 -3.90625 10.242188 -3.945312 10.734375 -4.03125 C 11.234375 -4.113281 11.601562 -4.226562 11.84375 -4.375 L 11.84375 -7.265625 L 9.25 -7.046875 C 8.570312 -6.992188 8.015625 -6.847656 7.578125 -6.609375 C 7.148438 -6.367188 6.9375 -6.007812 6.9375 -5.53125 C 6.9375 -5.039062 7.117188 -4.644531 7.484375 -4.34375 C 7.859375 -4.050781 8.492188 -3.90625 9.390625 -3.90625 Z M 9.09375 -18.09375 C 10.394531 -18.09375 11.582031 -17.957031 12.65625 -17.6875 C 13.726562 -17.425781 14.640625 -17.023438 15.390625 -16.484375 C 16.148438 -15.941406 16.734375 -15.253906 17.140625 -14.421875 C 17.554688 -13.597656 17.765625 -12.617188 17.765625 -11.484375 L 17.765625 -3.390625 C 17.765625 -2.765625 17.585938 -2.253906 17.234375 -1.859375 C 16.890625 -1.460938 16.476562 -1.117188 16 -0.828125 C 14.4375 0.109375 12.234375 0.578125 9.390625 0.578125 C 8.109375 0.578125 6.957031 0.457031 5.9375 0.21875 C 4.914062 -0.0195312 4.035156 -0.378906 3.296875 -0.859375 C 2.566406 -1.347656 2.003906 -1.960938 1.609375 -2.703125 C 1.210938 -3.453125 1.015625 -4.320312 1.015625 -5.3125 C 1.015625 -6.96875 1.503906 -8.238281 2.484375 -9.125 C 3.472656 -10.019531 5.003906 -10.578125 7.078125 -10.796875 L 11.8125 -11.296875 L 11.8125 -11.5625 C 11.8125 -12.257812 11.503906 -12.753906 10.890625 -13.046875 C 10.273438 -13.347656 9.390625 -13.5 8.234375 -13.5 C 7.316406 -13.5 6.425781 -13.398438 5.5625 -13.203125 C 4.695312 -13.015625 3.914062 -12.78125 3.21875 -12.5 C 2.90625 -12.707031 2.640625 -13.035156 2.421875 -13.484375 C 2.203125 -13.929688 2.09375 -14.394531 2.09375 -14.875 C 2.09375 -15.5 2.242188 -16 2.546875 -16.375 C 2.847656 -16.75 3.3125 -17.066406 3.9375 -17.328125 C 4.632812 -17.597656 5.457031 -17.789062 6.40625 -17.90625 C 7.351562 -18.03125 8.25 -18.09375 9.09375 -18.09375 Z M 9.09375 -18.09375 "/></g></g></g><g fill="#0989c1" fill-opacity="1"><g transform="translate(227.118409, 196.15055)"><g><path d="M 8.015625 -0.03125 C 7.773438 0.0390625 7.394531 0.109375 6.875 0.171875 C 6.363281 0.242188 5.828125 0.28125 5.265625 0.28125 C 4.742188 0.28125 4.269531 0.242188 3.84375 0.171875 C 3.425781 0.109375 3.070312 -0.03125 2.78125 -0.25 C 2.488281 -0.46875 2.265625 -0.765625 2.109375 -1.140625 C 1.953125 -1.515625 1.875 -2 1.875 -2.59375 L 1.875 -13.4375 C 1.875 -13.988281 1.972656 -14.460938 2.171875 -14.859375 C 2.378906 -15.253906 2.675781 -15.609375 3.0625 -15.921875 C 3.445312 -16.234375 3.921875 -16.515625 4.484375 -16.765625 C 5.054688 -17.023438 5.664062 -17.25 6.3125 -17.4375 C 6.96875 -17.632812 7.644531 -17.785156 8.34375 -17.890625 C 9.039062 -18.003906 9.738281 -18.0625 10.4375 -18.0625 C 11.59375 -18.0625 12.503906 -17.835938 13.171875 -17.390625 C 13.847656 -16.941406 14.1875 -16.210938 14.1875 -15.203125 C 14.1875 -14.867188 14.140625 -14.535156 14.046875 -14.203125 C 13.953125 -13.878906 13.832031 -13.585938 13.6875 -13.328125 C 13.175781 -13.328125 12.65625 -13.300781 12.125 -13.25 C 11.601562 -13.207031 11.085938 -13.132812 10.578125 -13.03125 C 10.078125 -12.9375 9.601562 -12.832031 9.15625 -12.71875 C 8.707031 -12.613281 8.328125 -12.488281 8.015625 -12.34375 Z M 8.015625 -0.03125 "/></g></g></g><g fill="#0989c1" fill-opacity="1"><g transform="translate(241.958321, 196.15055)"><g/></g></g><g fill="#0989c1" fill-opacity="1"><g transform="translate(249.179691, 196.15055)"><g><path d="M 17.484375 -5.375 C 17.160156 -5.113281 16.753906 -4.90625 16.265625 -4.75 C 15.773438 -4.59375 15.203125 -4.515625 14.546875 -4.515625 C 13.679688 -4.515625 12.96875 -4.617188 12.40625 -4.828125 C 11.84375 -5.046875 11.472656 -5.421875 11.296875 -5.953125 C 10.628906 -8.078125 10.078125 -9.796875 9.640625 -11.109375 C 9.203125 -12.421875 8.863281 -13.566406 8.625 -14.546875 L 8.453125 -14.546875 C 8.378906 -13.128906 8.320312 -11.835938 8.28125 -10.671875 C 8.25 -9.503906 8.226562 -8.363281 8.21875 -7.25 C 8.207031 -6.144531 8.179688 -5.023438 8.140625 -3.890625 C 8.109375 -2.765625 8.054688 -1.515625 7.984375 -0.140625 C 7.671875 -0.0234375 7.257812 0.0703125 6.75 0.15625 C 6.25 0.238281 5.742188 0.28125 5.234375 0.28125 C 4.171875 0.28125 3.34375 0.113281 2.75 -0.21875 C 2.164062 -0.550781 1.875 -1.164062 1.875 -2.0625 L 2.921875 -20.46875 C 3.117188 -20.78125 3.539062 -21.117188 4.1875 -21.484375 C 4.832031 -21.847656 5.75 -22.03125 6.9375 -22.03125 C 8.207031 -22.03125 9.203125 -21.828125 9.921875 -21.421875 C 10.648438 -21.023438 11.179688 -20.382812 11.515625 -19.5 C 11.734375 -18.914062 11.96875 -18.25 12.21875 -17.5 C 12.476562 -16.757812 12.734375 -15.992188 12.984375 -15.203125 C 13.234375 -14.410156 13.476562 -13.617188 13.71875 -12.828125 C 13.957031 -12.046875 14.175781 -11.34375 14.375 -10.71875 L 14.546875 -10.71875 C 15.128906 -12.738281 15.707031 -14.691406 16.28125 -16.578125 C 16.863281 -18.472656 17.394531 -20.0625 17.875 -21.34375 C 18.238281 -21.53125 18.703125 -21.691406 19.265625 -21.828125 C 19.828125 -21.960938 20.457031 -22.03125 21.15625 -22.03125 C 22.332031 -22.03125 23.296875 -21.851562 24.046875 -21.5 C 24.796875 -21.15625 25.226562 -20.65625 25.34375 -20 C 25.445312 -19.519531 25.550781 -18.78125 25.65625 -17.78125 C 25.757812 -16.78125 25.867188 -15.65625 25.984375 -14.40625 C 26.109375 -13.15625 26.234375 -11.832031 26.359375 -10.4375 C 26.484375 -9.039062 26.597656 -7.695312 26.703125 -6.40625 C 26.804688 -5.125 26.894531 -3.945312 26.96875 -2.875 C 27.039062 -1.800781 27.09375 -0.972656 27.125 -0.390625 C 26.707031 -0.148438 26.273438 0.0195312 25.828125 0.125 C 25.390625 0.226562 24.820312 0.28125 24.125 0.28125 C 23.207031 0.28125 22.4375 0.125 21.8125 -0.1875 C 21.1875 -0.5 20.847656 -1.109375 20.796875 -2.015625 C 20.648438 -4.640625 20.554688 -7 20.515625 -9.09375 C 20.484375 -11.1875 20.429688 -12.945312 20.359375 -14.375 L 20.1875 -14.375 C 19.945312 -13.4375 19.597656 -12.253906 19.140625 -10.828125 C 18.679688 -9.410156 18.128906 -7.59375 17.484375 -5.375 Z M 17.484375 -5.375 "/></g></g></g><g fill="#0989c1" fill-opacity="1"><g transform="translate(277.956837, 196.15055)"><g><path d="M 9.390625 -3.90625 C 9.796875 -3.90625 10.242188 -3.945312 10.734375 -4.03125 C 11.234375 -4.113281 11.601562 -4.226562 11.84375 -4.375 L 11.84375 -7.265625 L 9.25 -7.046875 C 8.570312 -6.992188 8.015625 -6.847656 7.578125 -6.609375 C 7.148438 -6.367188 6.9375 -6.007812 6.9375 -5.53125 C 6.9375 -5.039062 7.117188 -4.644531 7.484375 -4.34375 C 7.859375 -4.050781 8.492188 -3.90625 9.390625 -3.90625 Z M 9.09375 -18.09375 C 10.394531 -18.09375 11.582031 -17.957031 12.65625 -17.6875 C 13.726562 -17.425781 14.640625 -17.023438 15.390625 -16.484375 C 16.148438 -15.941406 16.734375 -15.253906 17.140625 -14.421875 C 17.554688 -13.597656 17.765625 -12.617188 17.765625 -11.484375 L 17.765625 -3.390625 C 17.765625 -2.765625 17.585938 -2.253906 17.234375 -1.859375 C 16.890625 -1.460938 16.476562 -1.117188 16 -0.828125 C 14.4375 0.109375 12.234375 0.578125 9.390625 0.578125 C 8.109375 0.578125 6.957031 0.457031 5.9375 0.21875 C 4.914062 -0.0195312 4.035156 -0.378906 3.296875 -0.859375 C 2.566406 -1.347656 2.003906 -1.960938 1.609375 -2.703125 C 1.210938 -3.453125 1.015625 -4.320312 1.015625 -5.3125 C 1.015625 -6.96875 1.503906 -8.238281 2.484375 -9.125 C 3.472656 -10.019531 5.003906 -10.578125 7.078125 -10.796875 L 11.8125 -11.296875 L 11.8125 -11.5625 C 11.8125 -12.257812 11.503906 -12.753906 10.890625 -13.046875 C 10.273438 -13.347656 9.390625 -13.5 8.234375 -13.5 C 7.316406 -13.5 6.425781 -13.398438 5.5625 -13.203125 C 4.695312 -13.015625 3.914062 -12.78125 3.21875 -12.5 C 2.90625 -12.707031 2.640625 -13.035156 2.421875 -13.484375 C 2.203125 -13.929688 2.09375 -14.394531 2.09375 -14.875 C 2.09375 -15.5 2.242188 -16 2.546875 -16.375 C 2.847656 -16.75 3.3125 -17.066406 3.9375 -17.328125 C 4.632812 -17.597656 5.457031 -17.789062 6.40625 -17.90625 C 7.351562 -18.03125 8.25 -18.09375 9.09375 -18.09375 Z M 9.09375 -18.09375 "/></g></g></g><g fill="#0989c1" fill-opacity="1"><g transform="translate(297.598974, 196.15055)"><g><path d="M 8.015625 -0.03125 C 7.773438 0.0390625 7.394531 0.109375 6.875 0.171875 C 6.363281 0.242188 5.828125 0.28125 5.265625 0.28125 C 4.742188 0.28125 4.269531 0.242188 3.84375 0.171875 C 3.425781 0.109375 3.070312 -0.03125 2.78125 -0.25 C 2.488281 -0.46875 2.265625 -0.765625 2.109375 -1.140625 C 1.953125 -1.515625 1.875 -2 1.875 -2.59375 L 1.875 -13.4375 C 1.875 -13.988281 1.972656 -14.460938 2.171875 -14.859375 C 2.378906 -15.253906 2.675781 -15.609375 3.0625 -15.921875 C 3.445312 -16.234375 3.921875 -16.515625 4.484375 -16.765625 C 5.054688 -17.023438 5.664062 -17.25 6.3125 -17.4375 C 6.96875 -17.632812 7.644531 -17.785156 8.34375 -17.890625 C 9.039062 -18.003906 9.738281 -18.0625 10.4375 -18.0625 C 11.59375 -18.0625 12.503906 -17.835938 13.171875 -17.390625 C 13.847656 -16.941406 14.1875 -16.210938 14.1875 -15.203125 C 14.1875 -14.867188 14.140625 -14.535156 14.046875 -14.203125 C 13.953125 -13.878906 13.832031 -13.585938 13.6875 -13.328125 C 13.175781 -13.328125 12.65625 -13.300781 12.125 -13.25 C 11.601562 -13.207031 11.085938 -13.132812 10.578125 -13.03125 C 10.078125 -12.9375 9.601562 -12.832031 9.15625 -12.71875 C 8.707031 -12.613281 8.328125 -12.488281 8.015625 -12.34375 Z M 8.015625 -0.03125 "/></g></g></g><g fill="#0989c1" fill-opacity="1"><g transform="translate(312.438875, 196.15055)"><g><path d="M 8.015625 -6.03125 C 8.015625 -5.40625 8.210938 -4.957031 8.609375 -4.6875 C 9.003906 -4.425781 9.566406 -4.296875 10.296875 -4.296875 C 10.648438 -4.296875 11.019531 -4.328125 11.40625 -4.390625 C 11.789062 -4.453125 12.128906 -4.53125 12.421875 -4.625 C 12.640625 -4.351562 12.828125 -4.054688 12.984375 -3.734375 C 13.140625 -3.410156 13.21875 -3.019531 13.21875 -2.5625 C 13.21875 -1.644531 12.875 -0.894531 12.1875 -0.3125 C 11.5 0.257812 10.289062 0.546875 8.5625 0.546875 C 6.4375 0.546875 4.800781 0.0664062 3.65625 -0.890625 C 2.519531 -1.859375 1.953125 -3.425781 1.953125 -5.59375 L 1.953125 -21.046875 C 2.210938 -21.117188 2.585938 -21.195312 3.078125 -21.28125 C 3.578125 -21.363281 4.101562 -21.40625 4.65625 -21.40625 C 5.71875 -21.40625 6.539062 -21.21875 7.125 -20.84375 C 7.71875 -20.476562 8.015625 -19.691406 8.015625 -18.484375 L 8.015625 -16.171875 L 12.75 -16.171875 C 12.894531 -15.910156 13.03125 -15.582031 13.15625 -15.1875 C 13.289062 -14.789062 13.359375 -14.347656 13.359375 -13.859375 C 13.359375 -13.023438 13.171875 -12.421875 12.796875 -12.046875 C 12.421875 -11.671875 11.921875 -11.484375 11.296875 -11.484375 L 8.015625 -11.484375 Z M 8.015625 -6.03125 "/></g></g></g><g clip-path="url(#acec220f07)"><path fill="#0989c1" d="M 80.09375 184.800781 L 70.980469 198.683594 C 70.769531 199.023438 70.433594 199.203125 70.054688 199.203125 C 69.660156 199.203125 69.335938 199.023438 69.113281 198.683594 L 59.996094 184.800781 C 58.820312 182.894531 58.148438 180.636719 58.148438 178.210938 C 58.148438 171.421875 63.476562 165.910156 70.054688 165.910156 C 76.617188 165.910156 81.945312 171.421875 81.945312 178.210938 C 81.945312 180.636719 81.273438 182.894531 80.09375 184.800781 Z M 73.054688 174.171875 L 73.714844 181.367188 C 73.714844 181.476562 73.699219 181.605469 73.65625 181.660156 C 73.613281 181.730469 73.546875 181.773438 73.585938 181.84375 C 73.613281 181.898438 73.742188 181.898438 73.824219 181.898438 L 74.132812 181.898438 C 74.386719 181.898438 74.539062 181.730469 74.511719 181.476562 L 73.714844 174.128906 C 73.699219 174.03125 73.613281 173.945312 73.515625 173.945312 L 73.265625 173.945312 C 73.195312 173.945312 73.152344 173.976562 73.109375 174.015625 C 73.066406 174.058594 73.054688 174.113281 73.054688 174.171875 Z M 70.839844 171.101562 C 71.414062 171.042969 72.015625 171.210938 72.449219 171.605469 C 72.898438 171.984375 73.082031 172.472656 73.109375 173.035156 C 73.109375 173.0625 73.097656 173.089844 73.082031 173.121094 C 73.054688 173.132812 73.039062 173.148438 73.011719 173.148438 L 72.800781 173.148438 C 72.746094 173.148438 72.703125 173.105469 72.703125 173.050781 C 72.691406 172.601562 72.535156 172.222656 72.183594 171.914062 C 71.933594 171.6875 71.59375 171.546875 71.257812 171.507812 C 71.246094 171.507812 71.246094 171.507812 71.230469 171.492188 C 71.105469 171.378906 70.964844 171.269531 70.808594 171.183594 C 70.796875 171.171875 70.796875 171.15625 70.796875 171.140625 C 70.796875 171.113281 70.808594 171.101562 70.839844 171.101562 Z M 69 173.035156 C 69.015625 172.558594 69.15625 172.125 69.492188 171.757812 C 69.492188 171.757812 69.507812 171.746094 69.519531 171.746094 C 69.660156 171.746094 69.816406 171.757812 69.953125 171.800781 C 69.96875 171.800781 69.984375 171.816406 69.984375 171.828125 C 69.984375 171.84375 69.984375 171.855469 69.96875 171.871094 C 69.605469 172.164062 69.421875 172.574219 69.40625 173.050781 C 69.40625 173.105469 69.367188 173.148438 69.308594 173.148438 L 69.097656 173.148438 C 69.070312 173.148438 69.042969 173.132812 69.027344 173.121094 C 69.015625 173.089844 69 173.0625 69 173.035156 Z M 67.921875 174.859375 C 67.921875 174.96875 67.835938 175.054688 67.726562 175.054688 C 67.613281 175.054688 67.515625 174.96875 67.515625 174.859375 L 67.515625 173.105469 C 67.515625 172.503906 67.738281 172.027344 68.089844 171.675781 C 68.46875 171.296875 69.015625 171.101562 69.546875 171.101562 L 69.578125 171.085938 C 70.082031 171.085938 70.585938 171.269531 70.980469 171.605469 C 71.355469 171.941406 71.625 172.433594 71.625 173.078125 L 71.625 174.859375 C 71.625 174.96875 71.539062 175.054688 71.425781 175.054688 C 71.316406 175.054688 71.21875 174.96875 71.21875 174.859375 L 71.21875 173.078125 C 71.21875 172.574219 71.007812 172.179688 70.710938 171.914062 C 70.402344 171.632812 69.984375 171.492188 69.578125 171.492188 L 69.5625 171.492188 C 69.113281 171.507812 68.679688 171.660156 68.371094 171.96875 C 68.105469 172.234375 67.921875 172.613281 67.921875 173.105469 Z M 66.15625 173.511719 L 67.277344 173.511719 L 67.277344 174.535156 C 67.207031 174.621094 67.164062 174.730469 67.164062 174.859375 C 67.164062 175.167969 67.417969 175.40625 67.726562 175.40625 C 68.035156 175.40625 68.273438 175.167969 68.273438 174.859375 C 68.273438 174.730469 68.230469 174.621094 68.171875 174.535156 L 68.171875 173.511719 L 70.980469 173.511719 L 70.980469 174.535156 C 70.910156 174.621094 70.867188 174.730469 70.867188 174.859375 C 70.867188 175.167969 71.117188 175.40625 71.425781 175.40625 C 71.734375 175.40625 71.972656 175.167969 71.972656 174.859375 C 71.972656 174.730469 71.933594 174.621094 71.875 174.535156 L 71.875 173.511719 L 73.9375 173.511719 C 74.148438 173.511719 74.316406 173.667969 74.34375 173.875 L 75.15625 181.4375 C 75.214844 181.996094 74.792969 182.332031 74.34375 182.332031 L 65.746094 182.332031 C 65.3125 182.332031 64.878906 181.996094 64.933594 181.4375 L 65.761719 173.875 C 65.777344 173.667969 65.957031 173.511719 66.15625 173.511719 Z M 70.054688 168.773438 C 65.1875 168.773438 61.246094 172.851562 61.246094 177.875 C 61.246094 182.894531 65.1875 186.960938 70.054688 186.960938 C 74.90625 186.960938 78.847656 182.894531 78.847656 177.875 C 78.847656 172.851562 74.90625 168.773438 70.054688 168.773438 Z M 70.054688 168.773438 " fill-opacity="1" fill-rule="evenodd"/></g></svg>